<?xml version="1.0" encoding="utf-8"?>
<!-- Generator: Adobe Illustrator 15.0.0, SVG Export Plug-In  -->
<!DOCTYPE svg PUBLIC "-//W3C//DTD SVG 1.1//EN" "http://www.w3.org/Graphics/SVG/1.1/DTD/svg11.dtd" [
	<!ENTITY ns_flows "http://ns.adobe.com/Flows/1.0/">
]>
<svg version="1.1"
	 xmlns="http://www.w3.org/2000/svg" xmlns:xlink="http://www.w3.org/1999/xlink" xmlns:a="http://ns.adobe.com/AdobeSVGViewerExtensions/3.0/"
	 x="0px" y="0px" width="65px" height="50px" viewBox="-7 -2.76 65 50" enable-background="new -7 -2.76 65 50"
	 xml:space="preserve">
<defs>
</defs>
<g id="Ellipse_1_2_">
	<g>
		<circle fill-rule="evenodd" clip-rule="evenodd" fill="#F9D73A" cx="19.5" cy="22.74" r="19.5"/>
	</g>
</g>
<g id="Forma_1_2_">
	<g>
		<path fill-rule="evenodd" clip-rule="evenodd" d="M25.154,26.289c1.64,2.258,3.277,4.276,4.361,5.577
			c0.158,0.188,0.307,0.364,0.45,0.533h-3.274c-0.367,0-0.664,0.29-0.664,0.648c0,0.357,0.297,0.647,0.664,0.647H37.31
			c0.366,0,0.663-0.29,0.663-0.647c0-0.358-0.297-0.648-0.663-0.648h-3.274c0.143-0.169,0.291-0.345,0.449-0.533
			c1.085-1.296,2.722-3.319,4.362-5.577c1.628-2.194,3.093-4.5,4.384-6.898c1.355-2.598,2.043-4.755,2.043-6.411
			c0.004-3.441-1.395-6.742-3.887-9.176c-0.167-0.168-0.414-0.236-0.646-0.177s-0.413,0.236-0.475,0.463
			c-0.061,0.226,0.009,0.467,0.181,0.63c2.244,2.19,3.503,5.162,3.499,8.26c0,1.45-0.639,3.409-1.898,5.823
			c-1.262,2.343-2.694,4.595-4.284,6.738c-1.618,2.229-3.235,4.225-4.307,5.507c-0.357,0.427-0.678,0.804-0.951,1.123
			c-0.127,0.142-0.312,0.224-0.506,0.224c-0.193,0-0.377-0.082-0.506-0.224c-0.273-0.319-0.594-0.696-0.949-1.123
			c-1.072-1.282-2.689-3.278-4.308-5.507c-1.59-2.144-3.022-4.396-4.285-6.738c-1.261-2.414-1.898-4.373-1.898-5.823
			c0-4.693,2.875-8.932,7.301-10.763c2.973-1.218,6.323-1.218,9.297,0c0.219,0.09,0.47,0.061,0.659-0.079S37.6,1.77,37.57,1.541
			c-0.029-0.23-0.182-0.428-0.399-0.518c-6.759-2.783-14.547,0.309-17.4,6.905c-0.691,1.598-1.046,3.315-1.043,5.051
			c0,1.656,0.688,3.813,2.042,6.414C22.062,21.791,23.526,24.095,25.154,26.289z M32,7.13c0.367,0,0.664-0.29,0.664-0.648
			c0-0.357-0.297-0.647-0.664-0.647c-3.166,0-5.891,2.184-6.509,5.215c-0.618,3.032,1.044,6.067,3.97,7.25
			c2.924,1.184,6.299,0.185,8.057-2.386c1.76-2.57,1.414-5.996-0.824-8.182c-0.167-0.168-0.414-0.236-0.646-0.177
			c-0.231,0.06-0.412,0.236-0.473,0.463c-0.062,0.227,0.008,0.468,0.18,0.63c1.791,1.749,2.068,4.489,0.661,6.545
			c-1.407,2.057-4.106,2.855-6.446,1.909c-2.34-0.945-3.67-3.374-3.176-5.8C27.287,8.877,29.467,7.13,32,7.13z M51.66,35.361
			l-4.082-7.127c-0.369-0.633-1.06-1.022-1.806-1.018h-4.729c-0.367,0-0.664,0.29-0.664,0.647c0,0.358,0.297,0.648,0.664,0.648
			h4.729c0.266-0.006,0.514,0.13,0.648,0.354l4.08,7.127c0.111,0.186,0.108,0.415-0.006,0.599c-0.136,0.219-0.381,0.35-0.643,0.344
			H14.148c-0.261,0.006-0.506-0.125-0.642-0.344c-0.115-0.184-0.117-0.413-0.006-0.599l4.08-7.127
			c0.134-0.224,0.382-0.359,0.647-0.354h4.73c0.367,0,0.664-0.29,0.664-0.648c0-0.357-0.297-0.647-0.664-0.647h-4.73
			c-0.747-0.005-1.438,0.384-1.807,1.018l-4.081,7.127c-0.34,0.587-0.333,1.307,0.021,1.887c0.372,0.617,1.054,0.992,1.787,0.983
			h35.705c0.733,0.009,1.415-0.366,1.786-0.983C51.992,36.667,52,35.948,51.66,35.361z M44.609,30.456h-2.654
			c-0.131,0-0.26,0.038-0.368,0.109l-1.991,1.296c-0.305,0.198-0.387,0.601-0.184,0.898s0.615,0.378,0.92,0.18l1.822-1.188h2.455
			c0.367,0,0.664-0.29,0.664-0.647C45.273,30.746,44.977,30.456,44.609,30.456z M40.628,34.991c0,0.358,0.297,0.648,0.663,0.648
			h5.31c0.366,0,0.663-0.29,0.663-0.648c0-0.357-0.297-0.647-0.663-0.647h-5.31C40.925,34.343,40.628,34.633,40.628,34.991z
			 M24.037,33.047c0.292,0,0.551-0.187,0.636-0.46s-0.023-0.568-0.267-0.728l-1.991-1.296c-0.109-0.07-0.238-0.108-0.369-0.108
			h-2.654c-0.367,0-0.664,0.29-0.664,0.647c0,0.358,0.297,0.648,0.664,0.648h2.455l1.824,1.187
			C23.779,33.009,23.906,33.047,24.037,33.047z M17.4,34.343c-0.367,0-0.664,0.29-0.664,0.647c0,0.358,0.297,0.648,0.664,0.648
			h5.309c0.367,0,0.664-0.29,0.664-0.648c0-0.357-0.297-0.647-0.664-0.647H17.4z"/>
	</g>
</g>
</svg>
