<?xml version="1.0" encoding="utf-8"?>
<!-- Generator: Adobe Illustrator 15.0.0, SVG Export Plug-In  -->
<!DOCTYPE svg PUBLIC "-//W3C//DTD SVG 1.1//EN" "http://www.w3.org/Graphics/SVG/1.1/DTD/svg11.dtd" [
	<!ENTITY ns_flows "http://ns.adobe.com/Flows/1.0/">
]>
<svg version="1.1"
	 xmlns="http://www.w3.org/2000/svg" xmlns:xlink="http://www.w3.org/1999/xlink" xmlns:a="http://ns.adobe.com/AdobeSVGViewerExtensions/3.0/"
	 x="0px" y="0px" width="65px" height="50px" viewBox="-7 -3.363 65 50" enable-background="new -7 -3.363 65 50"
	 xml:space="preserve">
<defs>
</defs>
<g id="Ellipse_1_2_">
	<g>
		<circle fill-rule="evenodd" clip-rule="evenodd" fill="#F9D73A" cx="19.5" cy="22.137" r="19.5"/>
	</g>
</g>
<g id="Forma_1_2_">
	<g>
		<path fill-rule="evenodd" clip-rule="evenodd" d="M52.896,14.523L39.326,1.091c-1.469-1.454-3.857-1.454-5.326,0L12.822,22.054
			c-0.734,0.728-1.102,1.682-1.102,2.637s0.367,1.91,1.102,2.637l3.405,3.371l-3.739,3.7c-0.168,0.166-0.251,0.384-0.251,0.602
			s0.083,0.436,0.251,0.602c0.335,0.332,0.88,0.332,1.215,0l3.739-3.701L19,33.442l-8.748,8.659C10.084,42.268,10,42.485,10,42.703
			s0.084,0.436,0.252,0.602c0.335,0.332,0.879,0.332,1.215,0l8.748-8.659l6.178,6.114c1.469,1.454,3.857,1.454,5.326,0
			l21.178-20.963C53.607,19.093,54,18.156,54,17.16S53.607,15.228,52.896,14.523z M28.432,40.053
			c-0.302-0.096-0.586-0.26-0.824-0.496l-13.57-13.433c-0.536-0.529-0.71-1.282-0.528-1.959h14.922V40.053z M25.325,22.463
			l2.548-2.522c0.336-0.332,0.336-0.87,0-1.203c-0.336-0.332-0.879-0.332-1.215,0l-3.764,3.726H20.39l7.77-7.69
			c0.335-0.332,0.335-0.871,0-1.203c-0.336-0.332-0.881-0.332-1.216,0l-8.985,8.894h-3.12L34.413,3.087v17.349
			c0,1.118-0.919,2.027-2.048,2.027H25.325z M51.682,18.594L30.504,39.557c-0.109,0.108-0.229,0.2-0.354,0.279V24.165h2.215
			c2.076,0,3.767-1.673,3.767-3.729v-2.192h9.851l-4.973,4.923c-0.168,0.166-0.252,0.384-0.252,0.602s0.084,0.436,0.252,0.602
			c0.336,0.332,0.879,0.332,1.215,0l6.188-6.125c0,0,0.001,0,0.001-0.001h3.552C51.885,18.369,51.79,18.486,51.682,18.594z
			 M36.132,16.542V1.771c0.685-0.181,1.444-0.008,1.979,0.522l13.57,13.433c0.234,0.232,0.404,0.511,0.502,0.815H36.132z
			 M29.656,11.238c-0.228,0-0.448,0.091-0.608,0.25c-0.159,0.158-0.251,0.377-0.251,0.601c0,0.225,0.092,0.443,0.251,0.602
			c0.16,0.158,0.381,0.25,0.608,0.25c0.226,0,0.447-0.092,0.607-0.25c0.159-0.158,0.252-0.377,0.252-0.602
			c0-0.224-0.093-0.442-0.252-0.601C30.104,11.329,29.882,11.238,29.656,11.238z M10.863,38.061c0.227,0,0.448-0.091,0.607-0.249
			c0.161-0.158,0.252-0.378,0.252-0.602s-0.091-0.443-0.252-0.602c-0.16-0.158-0.381-0.249-0.607-0.249s-0.448,0.091-0.607,0.249
			c-0.16,0.158-0.252,0.378-0.252,0.602s0.092,0.443,0.252,0.602C10.415,37.97,10.637,38.061,10.863,38.061z M19.7,38.237
			l-3.903,3.863c-0.168,0.166-0.252,0.384-0.252,0.602s0.084,0.436,0.252,0.602c0.335,0.333,0.88,0.333,1.215,0l3.903-3.863
			c0.335-0.332,0.335-0.871,0-1.203S20.036,37.905,19.7,38.237z"/>
	</g>
</g>
</svg>
