<?xml version="1.0" encoding="utf-8"?>
<!-- Generator: Adobe Illustrator 15.0.0, SVG Export Plug-In  -->
<!DOCTYPE svg PUBLIC "-//W3C//DTD SVG 1.1//EN" "http://www.w3.org/Graphics/SVG/1.1/DTD/svg11.dtd" [
	<!ENTITY ns_flows "http://ns.adobe.com/Flows/1.0/">
]>
<svg version="1.1"
	 xmlns="http://www.w3.org/2000/svg" xmlns:xlink="http://www.w3.org/1999/xlink" xmlns:a="http://ns.adobe.com/AdobeSVGViewerExtensions/3.0/"
	 x="0px" y="0px" width="122px" height="50px" viewBox="0 0 122 50" enable-background="new 0 0 122 50" xml:space="preserve">
<defs>
</defs>
<g id="Ellipse_1_1_">
	<g>
		<circle fill-rule="evenodd" clip-rule="evenodd" fill="#2F213D" cx="25" cy="25" r="25"/>
	</g>
</g>
<g id="Nadus_._1_">
	<g>
		<path fill-rule="evenodd" clip-rule="evenodd" fill="#FFFFFF" d="M26.786,26.446l-8.031-12.299h-4.802V34h4.802V21.813L26.786,34
			h4.802V14.147h-4.802V26.446z M45.852,21.167c-0.412-0.936-1.048-1.675-1.909-2.218c-0.861-0.543-1.891-0.814-3.089-0.814
			c-1.292,0-2.448,0.323-3.468,0.969c-1.021,0.646-1.825,1.572-2.415,2.78c-0.59,1.207-0.885,2.635-0.885,4.282
			c0,1.628,0.295,3.051,0.885,4.268c0.59,1.218,1.395,2.148,2.415,2.794c1.02,0.646,2.176,0.969,3.468,0.969
			c1.198,0,2.228-0.271,3.089-0.814c0.861-0.542,1.497-1.281,1.909-2.218V34h4.774V18.331h-4.774V21.167z M44.883,28.945
			c-0.646,0.693-1.474,1.039-2.485,1.039c-1.03,0-1.858-0.337-2.485-1.011c-0.627-0.674-0.94-1.609-0.94-2.808
			s0.313-2.135,0.94-2.809c0.627-0.674,1.456-1.011,2.485-1.011c1.011,0,1.839,0.342,2.485,1.025
			c0.646,0.684,0.969,1.614,0.969,2.794C45.852,27.326,45.529,28.253,44.883,28.945z M64.861,21.167
			c-0.393-0.936-1.02-1.675-1.881-2.218s-1.891-0.814-3.089-0.814c-1.292,0-2.448,0.323-3.468,0.969
			c-1.021,0.646-1.825,1.572-2.415,2.78c-0.59,1.207-0.885,2.635-0.885,4.282c0,1.628,0.295,3.051,0.885,4.268
			c0.59,1.218,1.395,2.148,2.415,2.794c1.02,0.646,2.176,0.969,3.468,0.969c1.198,0,2.228-0.271,3.089-0.814
			c0.861-0.542,1.488-1.281,1.881-2.218V34h4.803V13.221h-4.803V21.167z M63.921,28.945c-0.646,0.693-1.474,1.039-2.485,1.039
			c-1.029,0-1.858-0.337-2.485-1.011c-0.627-0.674-0.94-1.609-0.94-2.808s0.313-2.135,0.94-2.809
			c0.627-0.674,1.456-1.011,2.485-1.011c1.012,0,1.84,0.342,2.485,1.025s0.969,1.614,0.969,2.794
			C64.89,27.326,64.566,28.253,63.921,28.945z M83.731,26.643c0,1.143-0.28,2.022-0.843,2.64c-0.562,0.618-1.329,0.927-2.303,0.927
			c-0.936,0-1.68-0.295-2.232-0.885c-0.552-0.589-0.828-1.418-0.828-2.484v-8.509h-4.773v9.099c0,2.097,0.529,3.744,1.586,4.941
			c1.059,1.198,2.486,1.798,4.283,1.798c1.179,0,2.213-0.271,3.103-0.814c0.889-0.543,1.558-1.273,2.008-2.19V34h4.829V18.331
			h-4.829V26.643z M101.955,25.534c-0.768-0.29-1.751-0.576-2.949-0.856c-1.104-0.243-1.914-0.487-2.428-0.73
			c-0.516-0.243-0.773-0.608-0.773-1.095c0-0.431,0.141-0.763,0.422-0.997s0.692-0.351,1.235-0.351c0.692,0,1.269,0.182,1.728,0.547
			c0.458,0.365,0.753,0.866,0.884,1.503h4.493c-0.3-1.629-1.044-2.939-2.232-3.932c-1.189-0.992-2.775-1.488-4.76-1.488
			c-1.947,0-3.453,0.436-4.521,1.306s-1.601,2.008-1.601,3.412c0,1.086,0.271,1.942,0.814,2.569s1.188,1.081,1.938,1.361
			c0.748,0.281,1.703,0.543,2.863,0.786c1.161,0.263,1.998,0.511,2.514,0.744c0.515,0.234,0.772,0.623,0.772,1.166
			c0,0.411-0.141,0.744-0.421,0.996c-0.281,0.253-0.693,0.38-1.236,0.38c-0.786,0-1.428-0.178-1.924-0.534
			c-0.496-0.355-0.781-0.87-0.855-1.544h-4.633c0.28,1.741,1.057,3.079,2.33,4.016c1.272,0.936,2.967,1.403,5.082,1.403
			c1.254,0,2.34-0.196,3.258-0.59c0.917-0.393,1.619-0.936,2.105-1.628s0.73-1.488,0.73-2.387c0-1.104-0.281-1.984-0.842-2.64
			C103.387,26.297,102.723,25.824,101.955,25.534z M112.841,25.607V34h8.687v-8.393H112.841z"/>
	</g>
</g>
<g id="_x2E__1_">
	<g>
		<rect x="112.501" y="25.53" fill-rule="evenodd" clip-rule="evenodd" fill="#97FFFE" width="8.687" height="8.394"/>
	</g>
</g>
</svg>
