<?xml version="1.0" encoding="utf-8"?>
<!-- Generator: Adobe Illustrator 15.0.0, SVG Export Plug-In  -->
<!DOCTYPE svg PUBLIC "-//W3C//DTD SVG 1.1//EN" "http://www.w3.org/Graphics/SVG/1.1/DTD/svg11.dtd" [
	<!ENTITY ns_flows "http://ns.adobe.com/Flows/1.0/">
]>
<svg version="1.1"
	 xmlns="http://www.w3.org/2000/svg" xmlns:xlink="http://www.w3.org/1999/xlink" xmlns:a="http://ns.adobe.com/AdobeSVGViewerExtensions/3.0/"
	 x="0px" y="0px" width="122px" height="50px" viewBox="0 0 122 50" enable-background="new 0 0 122 50" xml:space="preserve">
<defs>
</defs>
<g id="Ellipse_1_1_">
	<g>
		<circle fill-rule="evenodd" clip-rule="evenodd" fill="#F9D73A" cx="25" cy="25" r="25"/>
	</g>
</g>
<g id="Nadus_1_">
	<g>
		<path fill-rule="evenodd" clip-rule="evenodd" fill="#131515" d="M32.368,26.446l-8.031-12.299h-4.802V34h4.802V21.813L32.368,34
			h4.802V14.147h-4.802V26.446z M51.434,21.167c-0.412-0.936-1.048-1.675-1.909-2.218c-0.861-0.543-1.891-0.814-3.089-0.814
			c-1.292,0-2.448,0.323-3.468,0.969c-1.021,0.646-1.825,1.572-2.415,2.78c-0.59,1.207-0.885,2.635-0.885,4.282
			c0,1.628,0.295,3.051,0.885,4.268c0.59,1.218,1.395,2.148,2.415,2.794c1.02,0.646,2.176,0.969,3.468,0.969
			c1.198,0,2.228-0.271,3.089-0.814c0.861-0.542,1.497-1.281,1.909-2.218V34h4.774V18.331h-4.774V21.167z M50.465,28.945
			c-0.646,0.693-1.474,1.039-2.485,1.039c-1.03,0-1.858-0.337-2.485-1.011c-0.627-0.674-0.94-1.609-0.94-2.808
			s0.313-2.135,0.94-2.809c0.627-0.674,1.456-1.011,2.485-1.011c1.011,0,1.839,0.342,2.485,1.025
			c0.646,0.684,0.969,1.614,0.969,2.794C51.434,27.326,51.111,28.253,50.465,28.945z M70.444,21.167
			c-0.394-0.936-1.021-1.675-1.882-2.218s-1.891-0.814-3.088-0.814c-1.293,0-2.448,0.323-3.469,0.969
			c-1.02,0.646-1.825,1.572-2.415,2.78c-0.59,1.207-0.885,2.635-0.885,4.282c0,1.628,0.295,3.051,0.885,4.268
			c0.59,1.218,1.395,2.148,2.415,2.794c1.021,0.646,2.176,0.969,3.469,0.969c1.197,0,2.227-0.271,3.088-0.814
			c0.861-0.542,1.488-1.281,1.882-2.218V34h4.802V13.221h-4.802V21.167z M69.504,28.945c-0.646,0.693-1.475,1.039-2.485,1.039
			c-1.03,0-1.858-0.337-2.485-1.011s-0.94-1.609-0.94-2.808s0.313-2.135,0.94-2.809s1.455-1.011,2.485-1.011
			c1.011,0,1.839,0.342,2.485,1.025c0.646,0.684,0.969,1.614,0.969,2.794C70.473,27.326,70.149,28.253,69.504,28.945z
			 M89.314,26.643c0,1.143-0.281,2.022-0.844,2.64c-0.561,0.618-1.328,0.927-2.302,0.927c-0.937,0-1.681-0.295-2.232-0.885
			c-0.552-0.589-0.829-1.418-0.829-2.484v-8.509h-4.773v9.099c0,2.097,0.529,3.744,1.587,4.941c1.058,1.198,2.485,1.798,4.282,1.798
			c1.18,0,2.213-0.271,3.104-0.814c0.889-0.543,1.558-1.273,2.008-2.19V34h4.829V18.331h-4.829V26.643z M109.531,26.952
			c-0.563-0.655-1.227-1.128-1.994-1.418s-1.75-0.576-2.948-0.856c-1.104-0.243-1.914-0.487-2.429-0.73
			c-0.516-0.243-0.772-0.608-0.772-1.095c0-0.431,0.141-0.763,0.421-0.997c0.281-0.234,0.693-0.351,1.236-0.351
			c0.691,0,1.268,0.182,1.727,0.547s0.754,0.866,0.885,1.503h4.492c-0.299-1.629-1.043-2.939-2.232-3.932
			c-1.188-0.992-2.775-1.488-4.76-1.488c-1.947,0-3.453,0.436-4.521,1.306s-1.601,2.008-1.601,3.412
			c0,1.086,0.271,1.942,0.814,2.569s1.188,1.081,1.938,1.361c0.748,0.281,1.703,0.543,2.864,0.786
			c1.161,0.263,1.998,0.511,2.513,0.744c0.516,0.234,0.773,0.623,0.773,1.166c0,0.411-0.141,0.744-0.422,0.996
			c-0.281,0.253-0.693,0.38-1.235,0.38c-0.786,0-1.428-0.178-1.924-0.534c-0.496-0.355-0.782-0.87-0.856-1.544h-4.633
			c0.281,1.741,1.057,3.079,2.33,4.016c1.273,0.936,2.967,1.403,5.083,1.403c1.254,0,2.34-0.196,3.257-0.59
			c0.917-0.393,1.619-0.936,2.106-1.628c0.486-0.692,0.729-1.488,0.729-2.387C110.373,28.487,110.093,27.607,109.531,26.952z"/>
	</g>
</g>
<g id="_x2E__1_">
	<g>
		<rect x="113.672" y="25.619" fill-rule="evenodd" clip-rule="evenodd" fill="#F00022" width="8.688" height="8.393"/>
	</g>
</g>
</svg>
